<?xml version="1.0" standalone="no"?>
<!DOCTYPE svg PUBLIC "-//W3C//DTD SVG 20010904//EN"
 "http://www.w3.org/TR/2001/REC-SVG-20010904/DTD/svg10.dtd">
<svg version="1.0" xmlns="http://www.w3.org/2000/svg"
 width="688.000000pt" height="688.000000pt" viewBox="0 0 688.000000 688.000000"
 preserveAspectRatio="xMidYMid meet">
<metadata>
Created by potrace 1.14, written by Peter Selinger 2001-2017
</metadata>
<g transform="translate(0.000000,688.000000) scale(0.100000,-0.100000)"
fill="#000000" stroke="none">
<path d="M2219 6853 c-1 -16 -2 -44 -2 -63 -2 -31 4 -40 53 -80 66 -55 103
-94 127 -137 10 -18 21 -33 25 -33 5 0 8 -6 8 -13 0 -8 7 -28 15 -45 9 -17 18
-39 20 -49 2 -10 7 -36 12 -58 11 -46 10 -2833 -1 -2935 -6 -67 -11 -97 -30
-202 -44 -245 -166 -463 -310 -556 -23 -15 -43 -29 -46 -33 -6 -7 -120 -52
-140 -56 -8 -2 -26 -4 -40 -6 -14 -2 -30 -6 -35 -9 -13 -7 -163 -3 -235 6 -49
7 -170 40 -194 54 -5 3 16 13 48 23 59 19 178 78 184 91 2 5 8 8 13 8 5 0 19
8 31 17 34 27 168 165 168 174 0 4 6 14 13 21 27 28 85 167 102 241 25 113 25
222 1 351 -18 92 -81 217 -158 313 -53 65 -191 181 -209 176 -4 -1 -13 4 -19
12 -7 8 -18 15 -24 15 -6 0 -24 7 -40 15 -87 46 -268 69 -398 51 -121 -17
-280 -87 -365 -161 -50 -43 -93 -88 -93 -96 0 -5 -4 -9 -9 -9 -10 0 -71 -90
-104 -156 -22 -43 -38 -88 -64 -185 -10 -34 -9 -266 1 -314 20 -101 106 -278
173 -360 5 -5 20 -26 33 -45 14 -19 32 -44 40 -54 27 -36 215 -220 249 -246
18 -14 39 -31 46 -38 8 -6 16 -12 19 -12 2 0 31 -17 63 -38 86 -57 141 -85
258 -132 108 -42 109 -43 120 -45 6 -2 37 -10 70 -18 157 -41 310 -60 475 -60
155 1 228 8 378 39 223 46 451 166 609 320 42 41 77 74 78 74 2 0 3 -55 3
-122 0 -68 1 -127 2 -133 1 -5 2 -12 1 -15 -3 -8 -3 -294 -1 -305 1 -5 2 -14
1 -20 -1 -5 -2 -336 -2 -735 0 -772 -2 -805 -49 -905 -33 -70 -132 -195 -155
-195 -3 0 -18 -12 -32 -26 -22 -22 -26 -35 -27 -87 l-1 -62 798 -3 797 -2 0
64 c0 69 0 69 -72 125 -66 52 -126 138 -167 241 l-25 65 -2 748 -3 748 457 -4
c251 -2 471 -6 487 -10 55 -14 165 -59 165 -68 0 -5 4 -8 9 -6 14 4 104 -73
144 -124 63 -77 110 -186 121 -277 3 -19 6 -35 8 -37 4 -4 56 -7 98 -6 l35 1
0 728 0 729 -67 0 c-56 0 -68 -2 -69 -16 0 -9 -2 -23 -4 -31 -2 -8 -7 -30 -10
-48 -4 -18 -19 -62 -35 -98 -83 -184 -246 -305 -447 -330 -31 -4 -244 -7 -473
-7 l-415 -1 -1 926 -2 926 22 4 c32 5 1065 0 1111 -6 82 -11 122 -19 205 -43
47 -13 99 -30 117 -38 17 -8 36 -15 42 -15 6 0 11 -4 11 -10 0 -5 7 -10 16
-10 47 0 259 -146 371 -256 51 -50 93 -94 93 -98 0 -3 23 -35 50 -70 28 -35
50 -67 50 -71 0 -23 37 -39 97 -40 l65 -2 -6 61 c-4 34 -11 95 -16 136 -6 41
-13 95 -16 120 -3 25 -7 54 -9 65 -1 11 -6 47 -10 80 -3 33 -8 71 -11 85 -2
14 -7 50 -10 80 -3 30 -7 66 -9 80 -3 14 -7 50 -10 80 -3 30 -8 64 -10 75 -2
11 -7 45 -10 75 -3 30 -8 64 -10 75 -2 11 -4 26 -4 34 -1 7 -7 11 -16 7 -8 -3
-15 -1 -15 3 0 5 -15 6 -33 2 -18 -5 -41 -5 -52 -1 -11 4 -30 4 -41 -1 -12 -4
-25 -5 -28 -2 -8 8 -74 8 -82 1 -3 -4 -19 -2 -35 2 -16 5 -31 5 -34 0 -3 -5
-16 -6 -28 -1 -12 5 -31 5 -42 1 -11 -4 -24 -5 -29 -2 -11 6 -255 6 -262 0 -3
-3 -21 -2 -40 2 -19 4 -36 4 -39 -1 -3 -4 -16 -5 -28 0 -12 5 -31 5 -42 1 -19
-7 -74 -4 -82 4 -3 2 -17 1 -32 -4 -16 -4 -34 -4 -41 0 -7 5 -23 4 -36 0 -12
-5 -25 -6 -28 -3 -8 8 -152 7 -165 -1 -5 -4 -12 -2 -15 3 -4 6 -18 6 -36 1
-17 -5 -30 -6 -30 -2 0 4 -16 7 -35 7 -19 0 -35 -4 -35 -8 0 -5 -5 -5 -11 -1
-13 8 -257 10 -265 2 -3 -3 -21 -2 -40 2 -19 4 -36 4 -39 -1 -3 -4 -16 -5 -28
0 -12 5 -31 5 -42 1 -19 -6 -85 -3 -93 5 -2 2 -15 0 -28 -5 -13 -5 -26 -6 -29
0 -3 5 -18 5 -33 1 -15 -5 -36 -5 -47 -1 -11 4 -30 4 -41 -1 -12 -4 -25 -5
-28 -2 -8 8 -74 8 -82 1 -3 -4 -19 -2 -35 2 -16 5 -31 5 -34 0 -3 -5 -16 -6
-28 -1 -12 5 -31 5 -42 1 -11 -4 -24 -5 -29 -2 -11 6 -171 6 -182 0 -5 -3 -18
-2 -29 2 -11 4 -30 4 -41 -1 -12 -4 -25 -5 -28 -1 -4 3 -36 5 -71 4 l-65 -2 0
62 c-3 479 1 1650 6 1673 10 50 7 43 46 135 20 46 82 127 127 165 82 69 89 83
82 163 l-3 42 -794 0 -794 0 -1 -27z"/>
</g>
</svg>
